<mxfile host="app.diagrams.net" modified="2023-11-26T02:23:20.592Z" agent="Mozilla/5.0 (Windows NT 10.0; Win64; x64) AppleWebKit/537.36 (KHTML, like Gecko) Chrome/119.0.0.0 Safari/537.36 Edg/119.0.0.0" etag="Rc1BDYXTZfJBCUul9hiV" version="21.5.0" type="device">
  <diagram name="Page-1" id="uufcaY6uxnGyx1tlNJTq">
    <mxGraphModel dx="810" dy="521" grid="1" gridSize="10" guides="1" tooltips="1" connect="1" arrows="1" fold="1" page="1" pageScale="1" pageWidth="1100" pageHeight="850" math="0" shadow="0">
      <root>
        <mxCell id="0" />
        <mxCell id="1" parent="0" />
        <mxCell id="UR8s9GoGrOH9StJCztgB-1" value="&lt;span style=&quot;font-size: 14px;&quot;&gt;x&lt;sub&gt;1&lt;/sub&gt;&lt;/span&gt;" style="ellipse;whiteSpace=wrap;html=1;aspect=fixed;" parent="1" vertex="1">
          <mxGeometry x="268" y="290" width="80" height="80" as="geometry" />
        </mxCell>
        <mxCell id="UR8s9GoGrOH9StJCztgB-2" value="&lt;font style=&quot;font-size: 14px;&quot;&gt;x&lt;/font&gt;&lt;font style=&quot;font-size: 11.6667px;&quot;&gt;&lt;sub&gt;2&lt;/sub&gt;&lt;/font&gt;" style="ellipse;whiteSpace=wrap;html=1;aspect=fixed;" parent="1" vertex="1">
          <mxGeometry x="268" y="490" width="80" height="80" as="geometry" />
        </mxCell>
        <mxCell id="UR8s9GoGrOH9StJCztgB-3" value="ReLU" style="ellipse;whiteSpace=wrap;html=1;aspect=fixed;" parent="1" vertex="1">
          <mxGeometry x="523" y="190" width="80" height="80" as="geometry" />
        </mxCell>
        <mxCell id="UR8s9GoGrOH9StJCztgB-4" value="ReLU" style="ellipse;whiteSpace=wrap;html=1;aspect=fixed;" parent="1" vertex="1">
          <mxGeometry x="523" y="370" width="80" height="80" as="geometry" />
        </mxCell>
        <mxCell id="UR8s9GoGrOH9StJCztgB-5" value="ReLU" style="ellipse;whiteSpace=wrap;html=1;aspect=fixed;" parent="1" vertex="1">
          <mxGeometry x="523" y="580" width="80" height="80" as="geometry" />
        </mxCell>
        <mxCell id="Otu7wBL-DrnlwNhB7N8Q-5" style="edgeStyle=orthogonalEdgeStyle;rounded=0;orthogonalLoop=1;jettySize=auto;html=1;entryX=0.815;entryY=1;entryDx=0;entryDy=0;entryPerimeter=0;" edge="1" parent="1" source="UR8s9GoGrOH9StJCztgB-6" target="Otu7wBL-DrnlwNhB7N8Q-1">
          <mxGeometry relative="1" as="geometry" />
        </mxCell>
        <mxCell id="UR8s9GoGrOH9StJCztgB-6" value="&lt;font style=&quot;font-size: 14px;&quot;&gt;y&lt;sub&gt;1&lt;/sub&gt;&lt;/font&gt;" style="ellipse;whiteSpace=wrap;html=1;aspect=fixed;" parent="1" vertex="1">
          <mxGeometry x="753" y="290" width="80" height="80" as="geometry" />
        </mxCell>
        <mxCell id="Otu7wBL-DrnlwNhB7N8Q-6" style="edgeStyle=orthogonalEdgeStyle;rounded=0;orthogonalLoop=1;jettySize=auto;html=1;entryX=0.2;entryY=0.998;entryDx=0;entryDy=0;entryPerimeter=0;" edge="1" parent="1" source="UR8s9GoGrOH9StJCztgB-7" target="Otu7wBL-DrnlwNhB7N8Q-1">
          <mxGeometry relative="1" as="geometry" />
        </mxCell>
        <mxCell id="UR8s9GoGrOH9StJCztgB-7" value="&lt;font style=&quot;font-size: 14px;&quot;&gt;y&lt;sub&gt;2&lt;/sub&gt;&lt;/font&gt;" style="ellipse;whiteSpace=wrap;html=1;aspect=fixed;" parent="1" vertex="1">
          <mxGeometry x="753" y="490" width="80" height="80" as="geometry" />
        </mxCell>
        <mxCell id="UR8s9GoGrOH9StJCztgB-8" value="" style="endArrow=none;html=1;rounded=0;exitX=1;exitY=0.5;exitDx=0;exitDy=0;entryX=0;entryY=0.5;entryDx=0;entryDy=0;fillColor=#f5f5f5;strokeColor=#c2c2c2;" parent="1" source="UR8s9GoGrOH9StJCztgB-1" target="UR8s9GoGrOH9StJCztgB-3" edge="1">
          <mxGeometry width="50" height="50" relative="1" as="geometry">
            <mxPoint x="543" y="460" as="sourcePoint" />
            <mxPoint x="593" y="410" as="targetPoint" />
          </mxGeometry>
        </mxCell>
        <mxCell id="UR8s9GoGrOH9StJCztgB-10" value="" style="endArrow=none;html=1;rounded=0;exitX=1;exitY=0.5;exitDx=0;exitDy=0;entryX=0;entryY=0.5;entryDx=0;entryDy=0;fillColor=#f5f5f5;strokeColor=#c2c2c2;" parent="1" source="UR8s9GoGrOH9StJCztgB-1" target="UR8s9GoGrOH9StJCztgB-4" edge="1">
          <mxGeometry width="50" height="50" relative="1" as="geometry">
            <mxPoint x="383" y="390" as="sourcePoint" />
            <mxPoint x="433" y="340" as="targetPoint" />
          </mxGeometry>
        </mxCell>
        <mxCell id="UR8s9GoGrOH9StJCztgB-11" value="" style="endArrow=none;html=1;rounded=0;exitX=1;exitY=0.5;exitDx=0;exitDy=0;entryX=0;entryY=0.5;entryDx=0;entryDy=0;fillColor=#f5f5f5;strokeColor=#c2c2c2;" parent="1" source="UR8s9GoGrOH9StJCztgB-1" target="UR8s9GoGrOH9StJCztgB-5" edge="1">
          <mxGeometry width="50" height="50" relative="1" as="geometry">
            <mxPoint x="373" y="470" as="sourcePoint" />
            <mxPoint x="423" y="420" as="targetPoint" />
          </mxGeometry>
        </mxCell>
        <mxCell id="UR8s9GoGrOH9StJCztgB-12" value="" style="endArrow=none;html=1;rounded=0;exitX=1;exitY=0.5;exitDx=0;exitDy=0;entryX=0;entryY=0.5;entryDx=0;entryDy=0;fillColor=#f5f5f5;strokeColor=#c2c2c2;" parent="1" source="UR8s9GoGrOH9StJCztgB-2" target="UR8s9GoGrOH9StJCztgB-3" edge="1">
          <mxGeometry width="50" height="50" relative="1" as="geometry">
            <mxPoint x="543" y="460" as="sourcePoint" />
            <mxPoint x="593" y="410" as="targetPoint" />
          </mxGeometry>
        </mxCell>
        <mxCell id="UR8s9GoGrOH9StJCztgB-13" value="" style="endArrow=none;html=1;rounded=0;exitX=1;exitY=0.5;exitDx=0;exitDy=0;entryX=0;entryY=0.5;entryDx=0;entryDy=0;fillColor=#f5f5f5;strokeColor=#c2c2c2;" parent="1" source="UR8s9GoGrOH9StJCztgB-2" target="UR8s9GoGrOH9StJCztgB-4" edge="1">
          <mxGeometry width="50" height="50" relative="1" as="geometry">
            <mxPoint x="543" y="460" as="sourcePoint" />
            <mxPoint x="593" y="410" as="targetPoint" />
          </mxGeometry>
        </mxCell>
        <mxCell id="UR8s9GoGrOH9StJCztgB-14" value="" style="endArrow=none;html=1;rounded=0;exitX=1;exitY=0.5;exitDx=0;exitDy=0;entryX=0;entryY=0.5;entryDx=0;entryDy=0;fillColor=#f5f5f5;strokeColor=#c2c2c2;" parent="1" source="UR8s9GoGrOH9StJCztgB-2" target="UR8s9GoGrOH9StJCztgB-5" edge="1">
          <mxGeometry width="50" height="50" relative="1" as="geometry">
            <mxPoint x="543" y="460" as="sourcePoint" />
            <mxPoint x="593" y="410" as="targetPoint" />
          </mxGeometry>
        </mxCell>
        <mxCell id="UR8s9GoGrOH9StJCztgB-15" value="" style="endArrow=none;html=1;rounded=0;exitX=1;exitY=0.5;exitDx=0;exitDy=0;entryX=0;entryY=0.5;entryDx=0;entryDy=0;fillColor=#f5f5f5;strokeColor=#c2c2c2;" parent="1" source="UR8s9GoGrOH9StJCztgB-3" target="UR8s9GoGrOH9StJCztgB-6" edge="1">
          <mxGeometry width="50" height="50" relative="1" as="geometry">
            <mxPoint x="593" y="270" as="sourcePoint" />
            <mxPoint x="643" y="220" as="targetPoint" />
          </mxGeometry>
        </mxCell>
        <mxCell id="UR8s9GoGrOH9StJCztgB-16" value="" style="endArrow=none;html=1;rounded=0;exitX=1;exitY=0.5;exitDx=0;exitDy=0;entryX=0;entryY=0.5;entryDx=0;entryDy=0;fillColor=#f5f5f5;strokeColor=#c2c2c2;" parent="1" source="UR8s9GoGrOH9StJCztgB-4" target="UR8s9GoGrOH9StJCztgB-6" edge="1">
          <mxGeometry width="50" height="50" relative="1" as="geometry">
            <mxPoint x="613" y="240" as="sourcePoint" />
            <mxPoint x="763" y="340" as="targetPoint" />
          </mxGeometry>
        </mxCell>
        <mxCell id="UR8s9GoGrOH9StJCztgB-17" value="" style="endArrow=none;html=1;rounded=0;exitX=1;exitY=0.5;exitDx=0;exitDy=0;entryX=0;entryY=0.5;entryDx=0;entryDy=0;fillColor=#f5f5f5;strokeColor=#c2c2c2;" parent="1" source="UR8s9GoGrOH9StJCztgB-5" target="UR8s9GoGrOH9StJCztgB-6" edge="1">
          <mxGeometry width="50" height="50" relative="1" as="geometry">
            <mxPoint x="613" y="240" as="sourcePoint" />
            <mxPoint x="763" y="340" as="targetPoint" />
          </mxGeometry>
        </mxCell>
        <mxCell id="UR8s9GoGrOH9StJCztgB-18" value="" style="endArrow=none;html=1;rounded=0;exitX=0;exitY=0.5;exitDx=0;exitDy=0;entryX=1;entryY=0.5;entryDx=0;entryDy=0;fillColor=#f5f5f5;strokeColor=#c2c2c2;" parent="1" source="UR8s9GoGrOH9StJCztgB-7" target="UR8s9GoGrOH9StJCztgB-3" edge="1">
          <mxGeometry width="50" height="50" relative="1" as="geometry">
            <mxPoint x="613" y="240" as="sourcePoint" />
            <mxPoint x="763" y="340" as="targetPoint" />
          </mxGeometry>
        </mxCell>
        <mxCell id="UR8s9GoGrOH9StJCztgB-19" value="" style="endArrow=none;html=1;rounded=0;exitX=1;exitY=0.5;exitDx=0;exitDy=0;entryX=0;entryY=0.5;entryDx=0;entryDy=0;fillColor=#f5f5f5;strokeColor=#c2c2c2;" parent="1" source="UR8s9GoGrOH9StJCztgB-4" target="UR8s9GoGrOH9StJCztgB-7" edge="1">
          <mxGeometry width="50" height="50" relative="1" as="geometry">
            <mxPoint x="613" y="420" as="sourcePoint" />
            <mxPoint x="763" y="340" as="targetPoint" />
          </mxGeometry>
        </mxCell>
        <mxCell id="UR8s9GoGrOH9StJCztgB-20" value="" style="endArrow=none;html=1;rounded=0;exitX=1;exitY=0.5;exitDx=0;exitDy=0;entryX=0;entryY=0.5;entryDx=0;entryDy=0;fillColor=#f5f5f5;strokeColor=#c2c2c2;" parent="1" source="UR8s9GoGrOH9StJCztgB-5" target="UR8s9GoGrOH9StJCztgB-7" edge="1">
          <mxGeometry width="50" height="50" relative="1" as="geometry">
            <mxPoint x="613" y="420" as="sourcePoint" />
            <mxPoint x="763" y="540" as="targetPoint" />
          </mxGeometry>
        </mxCell>
        <mxCell id="UR8s9GoGrOH9StJCztgB-22" value="Input Layer" style="text;html=1;strokeColor=none;fillColor=none;align=center;verticalAlign=middle;whiteSpace=wrap;rounded=0;fontStyle=1" parent="1" vertex="1">
          <mxGeometry x="272" y="230" width="72" height="30" as="geometry" />
        </mxCell>
        <mxCell id="UR8s9GoGrOH9StJCztgB-23" value="Output Layer" style="text;html=1;strokeColor=none;fillColor=none;align=center;verticalAlign=middle;whiteSpace=wrap;rounded=0;fontStyle=1" parent="1" vertex="1">
          <mxGeometry x="751.5" y="230" width="83" height="30" as="geometry" />
        </mxCell>
        <mxCell id="UR8s9GoGrOH9StJCztgB-24" value="Hidden Layer" style="text;html=1;strokeColor=none;fillColor=none;align=center;verticalAlign=middle;whiteSpace=wrap;rounded=0;fontStyle=1" parent="1" vertex="1">
          <mxGeometry x="516.5" y="130" width="93" height="30" as="geometry" />
        </mxCell>
        <mxCell id="UR8s9GoGrOH9StJCztgB-26" value="&lt;pre style=&quot;box-sizing: unset; font-family: var(--jp-code-font-family); font-size: var(--jp-code-font-size); line-height: normal; color: var(--jp-content-font-color1); border: none; margin-top: 0px; margin-bottom: 0px; padding: 0px; overflow: auto; word-break: break-all; overflow-wrap: break-word; text-align: left; background-color: rgb(255, 255, 255);&quot;&gt;-0.54&lt;/pre&gt;" style="text;html=1;align=center;verticalAlign=middle;resizable=0;points=[];autosize=1;strokeColor=none;fillColor=none;" parent="1" vertex="1">
          <mxGeometry x="370" y="270" width="50" height="30" as="geometry" />
        </mxCell>
        <mxCell id="UR8s9GoGrOH9StJCztgB-27" value="&lt;pre style=&quot;box-sizing: unset; font-family: var(--jp-code-font-family); font-size: var(--jp-code-font-size); line-height: normal; color: var(--jp-content-font-color1); border: none; margin-top: 0px; margin-bottom: 0px; padding: 0px; overflow: auto; word-break: break-all; overflow-wrap: break-word; text-align: left; background-color: rgb(255, 255, 255);&quot;&gt;-0.62&lt;/pre&gt;" style="text;html=1;align=center;verticalAlign=middle;resizable=0;points=[];autosize=1;strokeColor=none;fillColor=none;" parent="1" vertex="1">
          <mxGeometry x="370" y="315" width="50" height="30" as="geometry" />
        </mxCell>
        <mxCell id="UR8s9GoGrOH9StJCztgB-28" value="&lt;pre style=&quot;box-sizing: unset; font-family: var(--jp-code-font-family); font-size: var(--jp-code-font-size); line-height: normal; color: var(--jp-content-font-color1); border: none; margin-top: 0px; margin-bottom: 0px; padding: 0px; overflow: auto; word-break: break-all; overflow-wrap: break-word; text-align: left; background-color: rgb(255, 255, 255);&quot;&gt;-1.82&lt;/pre&gt;" style="text;html=1;align=center;verticalAlign=middle;resizable=0;points=[];autosize=1;strokeColor=none;fillColor=none;" parent="1" vertex="1">
          <mxGeometry x="370" y="360" width="50" height="30" as="geometry" />
        </mxCell>
        <mxCell id="UR8s9GoGrOH9StJCztgB-29" value="b =&amp;nbsp;-0.45" style="text;html=1;align=center;verticalAlign=middle;resizable=0;points=[];autosize=1;strokeColor=none;fillColor=none;" parent="1" vertex="1">
          <mxGeometry x="528" y="160" width="70" height="30" as="geometry" />
        </mxCell>
        <mxCell id="UR8s9GoGrOH9StJCztgB-30" value="b =&amp;nbsp;0.25" style="text;html=1;align=center;verticalAlign=middle;resizable=0;points=[];autosize=1;strokeColor=none;fillColor=none;" parent="1" vertex="1">
          <mxGeometry x="528" y="340" width="70" height="30" as="geometry" />
        </mxCell>
        <mxCell id="UR8s9GoGrOH9StJCztgB-31" value="b =&amp;nbsp;-0.22" style="text;html=1;align=center;verticalAlign=middle;resizable=0;points=[];autosize=1;strokeColor=none;fillColor=none;" parent="1" vertex="1">
          <mxGeometry x="528" y="550" width="70" height="30" as="geometry" />
        </mxCell>
        <mxCell id="UR8s9GoGrOH9StJCztgB-32" value="&lt;pre style=&quot;box-sizing: unset; font-family: var(--jp-code-font-family); font-size: var(--jp-code-font-size); line-height: normal; color: var(--jp-content-font-color1); border: none; margin-top: 0px; margin-bottom: 0px; padding: 0px; overflow: auto; word-break: break-all; overflow-wrap: break-word; text-align: left; background-color: rgb(255, 255, 255);&quot;&gt;0.77&lt;/pre&gt;" style="text;html=1;align=center;verticalAlign=middle;resizable=0;points=[];autosize=1;strokeColor=none;fillColor=none;" parent="1" vertex="1">
          <mxGeometry x="360" y="430" width="50" height="30" as="geometry" />
        </mxCell>
        <mxCell id="UR8s9GoGrOH9StJCztgB-33" value="&lt;pre style=&quot;box-sizing: unset; font-family: var(--jp-code-font-family); font-size: var(--jp-code-font-size); line-height: normal; color: var(--jp-content-font-color1); border: none; margin-top: 0px; margin-bottom: 0px; padding: 0px; overflow: auto; word-break: break-all; overflow-wrap: break-word; text-align: left; background-color: rgb(255, 255, 255);&quot;&gt;-0.85&lt;/pre&gt;" style="text;html=1;align=center;verticalAlign=middle;resizable=0;points=[];autosize=1;strokeColor=none;fillColor=none;" parent="1" vertex="1">
          <mxGeometry x="360" y="475" width="50" height="30" as="geometry" />
        </mxCell>
        <mxCell id="UR8s9GoGrOH9StJCztgB-34" value="&lt;pre style=&quot;box-sizing: unset; font-family: var(--jp-code-font-family); font-size: var(--jp-code-font-size); line-height: normal; color: var(--jp-content-font-color1); border: none; margin-top: 0px; margin-bottom: 0px; padding: 0px; overflow: auto; word-break: break-all; overflow-wrap: break-word; text-align: left; background-color: rgb(255, 255, 255);&quot;&gt;-0.61&lt;/pre&gt;" style="text;html=1;align=center;verticalAlign=middle;resizable=0;points=[];autosize=1;strokeColor=none;fillColor=none;" parent="1" vertex="1">
          <mxGeometry x="360" y="520" width="50" height="30" as="geometry" />
        </mxCell>
        <mxCell id="UR8s9GoGrOH9StJCztgB-35" value="&lt;pre style=&quot;box-sizing: unset; font-family: var(--jp-code-font-family); font-size: var(--jp-code-font-size); line-height: normal; color: var(--jp-content-font-color1); border: none; margin-top: 0px; margin-bottom: 0px; padding: 0px; overflow: auto; word-break: break-all; overflow-wrap: break-word; text-align: left; background-color: rgb(255, 255, 255);&quot;&gt;-1.36&lt;/pre&gt;" style="text;html=1;align=center;verticalAlign=middle;resizable=0;points=[];autosize=1;strokeColor=none;fillColor=none;" parent="1" vertex="1">
          <mxGeometry x="609.5" y="207.5" width="50" height="30" as="geometry" />
        </mxCell>
        <mxCell id="UR8s9GoGrOH9StJCztgB-36" value="&lt;pre style=&quot;box-sizing: unset; font-family: var(--jp-code-font-family); font-size: var(--jp-code-font-size); line-height: normal; color: var(--jp-content-font-color1); border: none; margin-top: 0px; margin-bottom: 0px; padding: 0px; overflow: auto; word-break: break-all; overflow-wrap: break-word; text-align: left; background-color: rgb(255, 255, 255);&quot;&gt;-0.03&lt;/pre&gt;" style="text;html=1;align=center;verticalAlign=middle;resizable=0;points=[];autosize=1;strokeColor=none;fillColor=none;" parent="1" vertex="1">
          <mxGeometry x="609.5" y="252.5" width="50" height="30" as="geometry" />
        </mxCell>
        <mxCell id="UR8s9GoGrOH9StJCztgB-38" value="&lt;pre style=&quot;box-sizing: unset; font-family: var(--jp-code-font-family); font-size: var(--jp-code-font-size); line-height: normal; color: var(--jp-content-font-color1); border: none; margin-top: 0px; margin-bottom: 0px; padding: 0px; overflow: auto; word-break: break-all; overflow-wrap: break-word; text-align: left; background-color: rgb(255, 255, 255);&quot;&gt;2.18&lt;/pre&gt;" style="text;html=1;align=center;verticalAlign=middle;resizable=0;points=[];autosize=1;strokeColor=none;fillColor=none;" parent="1" vertex="1">
          <mxGeometry x="609.5" y="400" width="50" height="30" as="geometry" />
        </mxCell>
        <mxCell id="UR8s9GoGrOH9StJCztgB-39" value="&lt;pre style=&quot;box-sizing: unset; font-family: var(--jp-code-font-family); font-size: var(--jp-code-font-size); line-height: normal; color: var(--jp-content-font-color1); border: none; margin-top: 0px; margin-bottom: 0px; padding: 0px; overflow: auto; word-break: break-all; overflow-wrap: break-word; text-align: left; background-color: rgb(255, 255, 255);&quot;&gt;-2.13&lt;/pre&gt;" style="text;html=1;align=center;verticalAlign=middle;resizable=0;points=[];autosize=1;strokeColor=none;fillColor=none;" parent="1" vertex="1">
          <mxGeometry x="609.5" y="355" width="50" height="30" as="geometry" />
        </mxCell>
        <mxCell id="UR8s9GoGrOH9StJCztgB-40" value="&lt;pre style=&quot;box-sizing: unset; font-family: var(--jp-code-font-family); font-size: var(--jp-code-font-size); line-height: normal; color: var(--jp-content-font-color1); border: none; margin-top: 0px; margin-bottom: 0px; padding: 0px; overflow: auto; word-break: break-all; overflow-wrap: break-word; text-align: left; background-color: rgb(255, 255, 255);&quot;&gt;-0.19&lt;/pre&gt;" style="text;html=1;align=center;verticalAlign=middle;resizable=0;points=[];autosize=1;strokeColor=none;fillColor=none;" parent="1" vertex="1">
          <mxGeometry x="603" y="572.5" width="50" height="30" as="geometry" />
        </mxCell>
        <mxCell id="UR8s9GoGrOH9StJCztgB-41" value="&lt;pre style=&quot;box-sizing: unset; font-family: var(--jp-code-font-family); font-size: var(--jp-code-font-size); line-height: normal; color: var(--jp-content-font-color1); border: none; margin-top: 0px; margin-bottom: 0px; padding: 0px; overflow: auto; word-break: break-all; overflow-wrap: break-word; text-align: left; background-color: rgb(255, 255, 255);&quot;&gt;1.56&lt;/pre&gt;" style="text;html=1;align=center;verticalAlign=middle;resizable=0;points=[];autosize=1;strokeColor=none;fillColor=none;" parent="1" vertex="1">
          <mxGeometry x="603" y="527.5" width="50" height="30" as="geometry" />
        </mxCell>
        <mxCell id="UR8s9GoGrOH9StJCztgB-42" value="b = 1.76" style="text;html=1;align=center;verticalAlign=middle;resizable=0;points=[];autosize=1;strokeColor=none;fillColor=none;" parent="1" vertex="1">
          <mxGeometry x="758" y="260" width="70" height="30" as="geometry" />
        </mxCell>
        <mxCell id="UR8s9GoGrOH9StJCztgB-43" value="b = -1.76" style="text;html=1;align=center;verticalAlign=middle;resizable=0;points=[];autosize=1;strokeColor=none;fillColor=none;" parent="1" vertex="1">
          <mxGeometry x="758" y="460" width="70" height="30" as="geometry" />
        </mxCell>
        <mxCell id="Otu7wBL-DrnlwNhB7N8Q-1" value="softmax" style="rounded=1;direction=south;fillColor=#f5f5f5;fontColor=#333333;strokeColor=#666666;labelPosition=center;verticalLabelPosition=middle;align=center;verticalAlign=middle;horizontal=0;flipH=0;flipV=1;labelBorderColor=none;labelBackgroundColor=none;whiteSpace=wrap;html=1;" vertex="1" parent="1">
          <mxGeometry x="860" y="270" width="30" height="325" as="geometry" />
        </mxCell>
        <mxCell id="Otu7wBL-DrnlwNhB7N8Q-7" value="softmax([y1, y2])" style="text;html=1;align=center;verticalAlign=middle;resizable=0;points=[];autosize=1;strokeColor=none;fillColor=none;rotation=270;" vertex="1" parent="1">
          <mxGeometry x="850" y="417.5" width="110" height="30" as="geometry" />
        </mxCell>
      </root>
    </mxGraphModel>
  </diagram>
</mxfile>
